<svg width="13" height="8" viewBox="0 0 13 8" fill="none" xmlns="http://www.w3.org/2000/svg">
<path d="M6.49999 7.475C6.36665 7.475 6.24165 7.45417 6.12499 7.4125C6.00832 7.37084 5.89999 7.3 5.79999 7.2L1.19999 2.6C1.01665 2.41667 0.924988 2.18334 0.924988 1.9C0.924988 1.61667 1.01665 1.38334 1.19999 1.2C1.38332 1.01667 1.61665 0.925003 1.89999 0.925003C2.18332 0.925003 2.41665 1.01667 2.59999 1.2L6.49999 5.1L10.4 1.2C10.5833 1.01667 10.8167 0.925003 11.1 0.925003C11.3833 0.925003 11.6167 1.01667 11.8 1.2C11.9833 1.38334 12.075 1.61667 12.075 1.9C12.075 2.18334 11.9833 2.41667 11.8 2.6L7.19999 7.2C7.09999 7.3 6.99165 7.37084 6.87499 7.4125C6.75832 7.45417 6.63332 7.475 6.49999 7.475Z" fill="#1C1B1F"/>
</svg>
