<svg width="24" height="17" viewBox="0 0 24 17" fill="none" xmlns="http://www.w3.org/2000/svg">
<path d="M5.44812 9.95847L9.60437 14.1147C9.89604 14.4064 10.0358 14.7467 10.0236 15.1355C10.0115 15.5244 9.87173 15.8647 9.60437 16.1564C9.3127 16.448 8.96635 16.6 8.56531 16.6121C8.16426 16.6243 7.81791 16.4845 7.52624 16.1928L0.85437 9.52097C0.562703 9.2293 0.41687 8.88902 0.41687 8.50014C0.41687 8.11125 0.562703 7.77097 0.85437 7.4793L7.52624 0.807428C7.81791 0.515762 8.16426 0.376005 8.56531 0.388157C8.96635 0.40031 9.3127 0.55222 9.60437 0.843887C9.87173 1.13555 10.0115 1.47583 10.0236 1.86472C10.0358 2.25361 9.89604 2.59389 9.60437 2.88555L5.44812 7.0418H21.7085C22.1217 7.0418 22.4681 7.18156 22.7476 7.46107C23.0271 7.74059 23.1669 8.08694 23.1669 8.50014C23.1669 8.91333 23.0271 9.25968 22.7476 9.5392C22.4681 9.81871 22.1217 9.95847 21.7085 9.95847H5.44812Z" fill="#1C1B1F"/>
</svg>
