<svg width="18" height="21" viewBox="0 0 18 21" fill="none" xmlns="http://www.w3.org/2000/svg">
<path d="M2.0835 20.25C1.5848 20.25 1.16844 20.083 0.834416 19.7489C0.500388 19.4149 0.333374 18.9985 0.333374 18.4999V4.66677C0.333374 4.16808 0.500388 3.75171 0.834416 3.41769C1.16844 3.08366 1.5848 2.91665 2.0835 2.91665H3.99992V1.08337C3.99992 0.915277 4.05517 0.775979 4.16567 0.665479C4.27617 0.555159 4.41537 0.5 4.58329 0.5C4.75139 0.5 4.89069 0.555159 5.00119 0.665479C5.11151 0.775979 5.16667 0.915277 5.16667 1.08337V2.91665H12.9168V1.04167C12.9168 0.887472 12.9686 0.758645 13.072 0.655187C13.1755 0.551729 13.3043 0.5 13.4585 0.5C13.6125 0.5 13.7413 0.551729 13.8447 0.655187C13.9483 0.758645 14.0002 0.887472 14.0002 1.04167V2.91665H15.9166C16.4153 2.91665 16.8316 3.08366 17.1657 3.41769C17.4997 3.75171 17.6667 4.16808 17.6667 4.66677V18.4999C17.6667 18.9985 17.4997 19.4149 17.1657 19.7489C16.8316 20.083 16.4153 20.25 15.9166 20.25H2.0835ZM2.0835 19.1666H15.9166C16.0834 19.1666 16.2363 19.0972 16.3751 18.9584C16.514 18.8195 16.5834 18.6667 16.5834 18.4999V9.0001H1.41671V18.4999C1.41671 18.6667 1.48613 18.8195 1.62498 18.9584C1.76383 19.0972 1.91667 19.1666 2.0835 19.1666ZM9.00004 12.8332C8.77651 12.8332 8.58169 12.7502 8.41558 12.5843C8.24965 12.4184 8.16669 12.2236 8.16669 11.9999C8.16669 11.7763 8.24965 11.5816 8.41558 11.4157C8.58169 11.2497 8.77651 11.1668 9.00004 11.1668C9.22357 11.1668 9.41839 11.2497 9.5845 11.4157C9.75043 11.5816 9.8334 11.7763 9.8334 11.9999C9.8334 12.2236 9.75043 12.4184 9.5845 12.5843C9.41839 12.7502 9.22357 12.8332 9.00004 12.8332ZM4.66671 12.8332C4.44318 12.8332 4.24836 12.7502 4.08225 12.5843C3.91632 12.4184 3.83335 12.2236 3.83335 11.9999C3.83335 11.7763 3.91632 11.5816 4.08225 11.4157C4.24836 11.2497 4.44318 11.1668 4.66671 11.1668C4.89024 11.1668 5.08505 11.2497 5.25117 11.4157C5.4171 11.5816 5.50006 11.7763 5.50006 11.9999C5.50006 12.2236 5.4171 12.4184 5.25117 12.5843C5.08505 12.7502 4.89024 12.8332 4.66671 12.8332ZM13.3334 12.8332C13.1098 12.8332 12.915 12.7502 12.7489 12.5843C12.583 12.4184 12.5 12.2236 12.5 11.9999C12.5 11.7763 12.583 11.5816 12.7489 11.4157C12.915 11.2497 13.1098 11.1668 13.3334 11.1668C13.5569 11.1668 13.7517 11.2497 13.9178 11.4157C14.0838 11.5816 14.1667 11.7763 14.1667 11.9999C14.1667 12.2236 14.0838 12.4184 13.9178 12.5843C13.7517 12.7502 13.5569 12.8332 13.3334 12.8332ZM9.00004 17C8.77651 17 8.58169 16.917 8.41558 16.7511C8.24965 16.5852 8.16669 16.3903 8.16669 16.1666C8.16669 15.9431 8.24965 15.7483 8.41558 15.5822C8.58169 15.4162 8.77651 15.3333 9.00004 15.3333C9.22357 15.3333 9.41839 15.4162 9.5845 15.5822C9.75043 15.7483 9.8334 15.9431 9.8334 16.1666C9.8334 16.3903 9.75043 16.5852 9.5845 16.7511C9.41839 16.917 9.22357 17 9.00004 17ZM4.66671 17C4.44318 17 4.24836 16.917 4.08225 16.7511C3.91632 16.5852 3.83335 16.3903 3.83335 16.1666C3.83335 15.9431 3.91632 15.7483 4.08225 15.5822C4.24836 15.4162 4.44318 15.3333 4.66671 15.3333C4.89024 15.3333 5.08505 15.4162 5.25117 15.5822C5.4171 15.7483 5.50006 15.9431 5.50006 16.1666C5.50006 16.3903 5.4171 16.5852 5.25117 16.7511C5.08505 16.917 4.89024 17 4.66671 17ZM13.3334 17C13.1098 17 12.915 16.917 12.7489 16.7511C12.583 16.5852 12.5 16.3903 12.5 16.1666C12.5 15.9431 12.583 15.7483 12.7489 15.5822C12.915 15.4162 13.1098 15.3333 13.3334 15.3333C13.5569 15.3333 13.7517 15.4162 13.9178 15.5822C14.0838 15.7483 14.1667 15.9431 14.1667 16.1666C14.1667 16.3903 14.0838 16.5852 13.9178 16.7511C13.7517 16.917 13.5569 17 13.3334 17Z" fill="#1C1B1F"/>
</svg>
