<svg width="24" height="27" viewBox="0 0 24 27" fill="none" xmlns="http://www.w3.org/2000/svg">
<mask id="mask0_1_533" style="mask-type:alpha" maskUnits="userSpaceOnUse" x="0" y="0" width="24" height="25">
<rect y="0.5" width="24" height="24" fill="#D9D9D9"/>
</mask>
<g mask="url(#mask0_1_533)">
<path d="M5 22.5C4.45 22.5 3.97917 22.3042 3.5875 21.9125C3.19583 21.5208 3 21.05 3 20.5V8.5C3 7.95 3.19583 7.47917 3.5875 7.0875C3.97917 6.69583 4.45 6.5 5 6.5H7C7 5.11667 7.4875 3.9375 8.4625 2.9625C9.4375 1.9875 10.6167 1.5 12 1.5C13.3833 1.5 14.5625 1.9875 15.5375 2.9625C16.5125 3.9375 17 5.11667 17 6.5H19C19.55 6.5 20.0208 6.69583 20.4125 7.0875C20.8042 7.47917 21 7.95 21 8.5V20.5C21 21.05 20.8042 21.5208 20.4125 21.9125C20.0208 22.3042 19.55 22.5 19 22.5H5ZM5 20.5H19V8.5H5V20.5ZM9 6.5H15C15 5.66667 14.7083 4.95833 14.125 4.375C13.5417 3.79167 12.8333 3.5 12 3.5C11.1667 3.5 10.4583 3.79167 9.875 4.375C9.29167 4.95833 9 5.66667 9 6.5ZM11.975 14.5C13.2083 14.5 14.325 14.0917 15.325 13.275C16.325 12.4583 16.8167 11.5417 16.8 10.525C16.8 10.2417 16.7083 10 16.525 9.8C16.3417 9.6 16.1083 9.5 15.825 9.5C15.5917 9.5 15.3833 9.575 15.2 9.725C15.0167 9.875 14.8833 10.1 14.8 10.4C14.6167 11.0333 14.2583 11.5417 13.725 11.925C13.1917 12.3083 12.6083 12.5 11.975 12.5C11.3417 12.5 10.7542 12.3083 10.2125 11.925C9.67083 11.5417 9.31667 11.0333 9.15 10.4C9.06667 10.0833 8.94167 9.85417 8.775 9.7125C8.60833 9.57083 8.40833 9.5 8.175 9.5C7.89167 9.5 7.65417 9.6 7.4625 9.8C7.27083 10 7.175 10.2417 7.175 10.525C7.175 11.5417 7.66667 12.4583 8.65 13.275C9.63333 14.0917 10.7417 14.5 11.975 14.5Z" fill="#1C1B1F"/>
</g>
</svg>
