<svg width="21" height="20" viewBox="0 0 21 20" fill="none" xmlns="http://www.w3.org/2000/svg">
<path d="M12.873 18.102C12.9052 18.1148 12.934 18.1213 12.9595 18.1213C12.9852 18.1213 13.0141 18.1148 13.0462 18.102L18.9287 16.2808C18.8776 16.0539 18.7718 15.8799 18.6115 15.7587C18.4512 15.6376 18.2697 15.577 18.0672 15.577H13.17C12.7337 15.577 12.3629 15.5603 12.0577 15.527C11.7526 15.4937 11.4391 15.4206 11.1172 15.3077L9.548 14.7943C9.34633 14.7301 9.20141 14.6019 9.11325 14.4098C9.02491 14.2174 9.01283 14.0216 9.077 13.8223C9.141 13.6228 9.265 13.4766 9.449 13.3837C9.633 13.2907 9.82625 13.2763 10.0287 13.3405L11.3287 13.7962C11.6314 13.8924 11.9699 13.9607 12.3442 14.001C12.7186 14.0413 13.2037 14.0667 13.7997 14.077H14.0672C14.0672 13.8295 14.0115 13.616 13.9 13.4365C13.7885 13.257 13.6417 13.1358 13.4595 13.073L7.65775 10.9423C7.63841 10.9359 7.62075 10.9312 7.60475 10.928C7.58875 10.9247 7.57116 10.923 7.552 10.923H5.702V16.077L12.873 18.102ZM12.4827 19.5712L5.702 17.627C5.58783 18.041 5.35575 18.3733 5.00575 18.624C4.65575 18.8747 4.28525 19 3.89425 19H2.50975C2.01258 19 1.587 18.823 1.233 18.469C0.878996 18.115 0.701996 17.6894 0.701996 17.1923V11.2308C0.701996 10.7338 0.878996 10.3083 1.233 9.95425C1.587 9.60025 2.01258 9.42325 2.50975 9.42325H7.54075C7.64558 9.42325 7.75183 9.43475 7.8595 9.45775C7.96733 9.48092 8.06733 9.50783 8.1595 9.5385L13.9865 11.6848C14.4403 11.8526 14.8172 12.1497 15.1172 12.576C15.4172 13.0023 15.5672 13.5027 15.5672 14.077H18.0672C18.7852 14.077 19.3702 14.3088 19.822 14.7723C20.274 15.2356 20.5 15.8372 20.5 16.577C20.5 16.8603 20.425 17.0885 20.275 17.2615C20.125 17.4347 19.8981 17.5718 19.5942 17.673L13.527 19.5557C13.3628 19.6096 13.1903 19.6381 13.0095 19.6413C12.8288 19.6446 12.6532 19.6212 12.4827 19.5712ZM2.202 17.1923C2.202 17.2821 2.23083 17.3558 2.2885 17.4135C2.34616 17.4712 2.41991 17.5 2.50975 17.5H3.89425C3.98391 17.5 4.05766 17.476 4.1155 17.428C4.17316 17.3798 4.202 17.3013 4.202 17.1923V10.923H2.50975C2.41991 10.923 2.34616 10.9519 2.2885 11.0098C2.23083 11.0674 2.202 11.1411 2.202 11.2308V17.1923ZM14.846 9.47875C14.6217 9.47875 14.4012 9.43775 14.1845 9.35575C13.9678 9.27375 13.7698 9.15067 13.5905 8.9865L10.8885 6.3635C10.4103 5.902 10.0081 5.38825 9.68175 4.82225C9.35541 4.25625 9.19225 3.63983 9.19225 2.973C9.19225 2.14717 9.48133 1.44525 10.0595 0.86725C10.6375 0.289083 11.3394 0 12.1652 0C12.7051 0 13.2035 0.130167 13.6605 0.3905C14.1177 0.650667 14.5129 0.982084 14.8462 1.38475C15.1796 0.982084 15.5747 0.650667 16.0317 0.3905C16.4887 0.130167 16.9872 0 17.527 0C18.3528 0 19.0547 0.289083 19.6327 0.86725C20.2109 1.44525 20.5 2.14717 20.5 2.973C20.5 3.63983 20.3394 4.25625 20.0182 4.82225C19.6971 5.38825 19.2974 5.902 18.8192 6.3635L16.102 8.9865C15.9225 9.15067 15.7243 9.27375 15.5075 9.35575C15.2908 9.43775 15.0703 9.47875 14.846 9.47875ZM15.0577 7.902L17.7057 5.33275C18.0416 5.00325 18.3412 4.64492 18.6047 4.25775C18.8682 3.87058 19 3.44233 19 2.973C19 2.5615 18.8573 2.21317 18.572 1.928C18.2868 1.64267 17.9385 1.5 17.527 1.5C17.2103 1.5 16.9206 1.58267 16.6577 1.748C16.3949 1.9135 16.1628 2.12317 15.9615 2.377L15.5152 2.9155C15.3431 3.12317 15.1206 3.227 14.8477 3.227C14.5749 3.227 14.3513 3.12317 14.177 2.9155L13.7307 2.377C13.5294 2.12317 13.2973 1.9135 13.0345 1.748C12.7718 1.58267 12.4821 1.5 12.1652 1.5C11.7537 1.5 11.4054 1.64267 11.1202 1.928C10.8349 2.21317 10.6922 2.5615 10.6922 2.973C10.6922 3.44233 10.824 3.87058 11.0875 4.25775C11.351 4.64492 11.6507 5.00325 11.9865 5.33275L14.6345 7.902C14.6923 7.95967 14.7629 7.9885 14.8462 7.9885C14.9296 7.9885 15.0001 7.95967 15.0577 7.902Z" fill="#1C1B1F"/>
</svg>
