<svg width="19" height="20" viewBox="0 0 19 20" fill="none" xmlns="http://www.w3.org/2000/svg">
<path d="M2.79167 20C2.26458 20 1.81337 19.8042 1.43802 19.4125C1.06267 19.0208 0.875 18.55 0.875 18V4C0.875 3.45 1.06267 2.97917 1.43802 2.5875C1.81337 2.19583 2.26458 2 2.79167 2H3.75V0H5.66667V2H13.3333V0H15.25V2H16.2083C16.7354 2 17.1866 2.19583 17.562 2.5875C17.9373 2.97917 18.125 3.45 18.125 4V18C18.125 18.55 17.9373 19.0208 17.562 19.4125C17.1866 19.8042 16.7354 20 16.2083 20H2.79167ZM2.79167 18H16.2083V8H2.79167V18ZM2.79167 6H16.2083V4H2.79167V6ZM9.5 12C9.22847 12 9.00087 11.9042 8.81719 11.7125C8.63351 11.5208 8.54167 11.2833 8.54167 11C8.54167 10.7167 8.63351 10.4792 8.81719 10.2875C9.00087 10.0958 9.22847 10 9.5 10C9.77153 10 9.99913 10.0958 10.1828 10.2875C10.3665 10.4792 10.4583 10.7167 10.4583 11C10.4583 11.2833 10.3665 11.5208 10.1828 11.7125C9.99913 11.9042 9.77153 12 9.5 12ZM5.66667 12C5.39514 12 5.16753 11.9042 4.98385 11.7125C4.80017 11.5208 4.70833 11.2833 4.70833 11C4.70833 10.7167 4.80017 10.4792 4.98385 10.2875C5.16753 10.0958 5.39514 10 5.66667 10C5.93819 10 6.1658 10.0958 6.34948 10.2875C6.53316 10.4792 6.625 10.7167 6.625 11C6.625 11.2833 6.53316 11.5208 6.34948 11.7125C6.1658 11.9042 5.93819 12 5.66667 12ZM13.3333 12C13.0618 12 12.8342 11.9042 12.6505 11.7125C12.4668 11.5208 12.375 11.2833 12.375 11C12.375 10.7167 12.4668 10.4792 12.6505 10.2875C12.8342 10.0958 13.0618 10 13.3333 10C13.6049 10 13.8325 10.0958 14.0161 10.2875C14.1998 10.4792 14.2917 10.7167 14.2917 11C14.2917 11.2833 14.1998 11.5208 14.0161 11.7125C13.8325 11.9042 13.6049 12 13.3333 12ZM9.5 16C9.22847 16 9.00087 15.9042 8.81719 15.7125C8.63351 15.5208 8.54167 15.2833 8.54167 15C8.54167 14.7167 8.63351 14.4792 8.81719 14.2875C9.00087 14.0958 9.22847 14 9.5 14C9.77153 14 9.99913 14.0958 10.1828 14.2875C10.3665 14.4792 10.4583 14.7167 10.4583 15C10.4583 15.2833 10.3665 15.5208 10.1828 15.7125C9.99913 15.9042 9.77153 16 9.5 16ZM5.66667 16C5.39514 16 5.16753 15.9042 4.98385 15.7125C4.80017 15.5208 4.70833 15.2833 4.70833 15C4.70833 14.7167 4.80017 14.4792 4.98385 14.2875C5.16753 14.0958 5.39514 14 5.66667 14C5.93819 14 6.1658 14.0958 6.34948 14.2875C6.53316 14.4792 6.625 14.7167 6.625 15C6.625 15.2833 6.53316 15.5208 6.34948 15.7125C6.1658 15.9042 5.93819 16 5.66667 16ZM13.3333 16C13.0618 16 12.8342 15.9042 12.6505 15.7125C12.4668 15.5208 12.375 15.2833 12.375 15C12.375 14.7167 12.4668 14.4792 12.6505 14.2875C12.8342 14.0958 13.0618 14 13.3333 14C13.6049 14 13.8325 14.0958 14.0161 14.2875C14.1998 14.4792 14.2917 14.7167 14.2917 15C14.2917 15.2833 14.1998 15.5208 14.0161 15.7125C13.8325 15.9042 13.6049 16 13.3333 16Z" fill="#686868"/>
</svg>
