<svg width="22" height="20" viewBox="0 0 22 20" fill="none" xmlns="http://www.w3.org/2000/svg">
<path d="M11 19.05C10.8167 19.05 10.6375 19.025 10.4625 18.975C10.2875 18.925 10.125 18.8583 9.975 18.775C9.29167 18.3583 8.575 18.0417 7.825 17.825C7.075 17.6083 6.3 17.5 5.5 17.5C4.8 17.5 4.1125 17.5917 3.4375 17.775C2.7625 17.9583 2.11667 18.2167 1.5 18.55C1.15 18.7333 0.8125 18.725 0.4875 18.525C0.1625 18.325 0 18.0333 0 17.65V5.59999C0 5.41665 0.0458333 5.24165 0.1375 5.07499C0.229167 4.90832 0.366667 4.78332 0.55 4.69999C1.31667 4.29999 2.11667 3.99999 2.95 3.79999C3.78333 3.59999 4.63333 3.49999 5.5 3.49999C6.46667 3.49999 7.4125 3.62499 8.3375 3.87499C9.2625 4.12499 10.15 4.49999 11 4.99999V17.1C11.85 16.5667 12.7417 16.1667 13.675 15.9C14.6083 15.6333 15.55 15.5 16.5 15.5C17.1 15.5 17.6875 15.55 18.2625 15.65C18.8375 15.75 19.4167 15.9 20 16.1V4.09999C20.25 4.18332 20.4958 4.27082 20.7375 4.36249C20.9792 4.45415 21.2167 4.56665 21.45 4.69999C21.6333 4.78332 21.7708 4.90832 21.8625 5.07499C21.9542 5.24165 22 5.41665 22 5.59999V17.65C22 18.0333 21.8375 18.325 21.5125 18.525C21.1875 18.725 20.85 18.7333 20.5 18.55C19.8833 18.2167 19.2375 17.9583 18.5625 17.775C17.8875 17.5917 17.2 17.5 16.5 17.5C15.7 17.5 14.925 17.6083 14.175 17.825C13.425 18.0417 12.7083 18.3583 12.025 18.775C11.875 18.8583 11.7125 18.925 11.5375 18.975C11.3625 19.025 11.1833 19.05 11 19.05ZM13.825 13.75C13.6583 13.9 13.4792 13.9292 13.2875 13.8375C13.0958 13.7458 13 13.5917 13 13.375V5.19999C13 5.13332 13.0125 5.07082 13.0375 5.01249C13.0625 4.95415 13.1 4.89999 13.15 4.84999L17.15 0.849986C17.3167 0.683319 17.5 0.641652 17.7 0.724986C17.9 0.808319 18 0.966652 18 1.19999V9.77499C18 9.85832 17.9833 9.92915 17.95 9.98749C17.9167 10.0458 17.875 10.1 17.825 10.15L13.825 13.75ZM9 16.125V6.22499C8.45 5.99165 7.87917 5.81249 7.2875 5.68749C6.69583 5.56249 6.1 5.49999 5.5 5.49999C4.88333 5.49999 4.28333 5.55832 3.7 5.67499C3.11667 5.79165 2.55 5.96665 2 6.19999V16.125C2.58333 15.9083 3.1625 15.75 3.7375 15.65C4.3125 15.55 4.9 15.5 5.5 15.5C6.1 15.5 6.6875 15.55 7.2625 15.65C7.8375 15.75 8.41667 15.9083 9 16.125Z" fill="#1C1B1F"/>
</svg>
