<svg width="18" height="21" viewBox="0 0 18 21" fill="none" xmlns="http://www.w3.org/2000/svg">
<path d="M4 20.5C3.71667 20.5 3.47917 20.4042 3.2875 20.2125C3.09583 20.0208 3 19.7833 3 19.5V11.35C2.1 11.1167 1.375 10.6417 0.825 9.925C0.275 9.20833 0 8.4 0 7.5V1.5C0 1.21667 0.0958333 0.979167 0.2875 0.7875C0.479167 0.595833 0.716667 0.5 1 0.5C1.28333 0.5 1.52083 0.595833 1.7125 0.7875C1.90417 0.979167 2 1.21667 2 1.5V6.5H3V1.5C3 1.21667 3.09583 0.979167 3.2875 0.7875C3.47917 0.595833 3.71667 0.5 4 0.5C4.28333 0.5 4.52083 0.595833 4.7125 0.7875C4.90417 0.979167 5 1.21667 5 1.5V6.5H6V1.5C6 1.21667 6.09583 0.979167 6.2875 0.7875C6.47917 0.595833 6.71667 0.5 7 0.5C7.28333 0.5 7.52083 0.595833 7.7125 0.7875C7.90417 0.979167 8 1.21667 8 1.5V7.5C8 8.4 7.725 9.20833 7.175 9.925C6.625 10.6417 5.9 11.1167 5 11.35V19.5C5 19.7833 4.90417 20.0208 4.7125 20.2125C4.52083 20.4042 4.28333 20.5 4 20.5ZM14 20.5C13.7167 20.5 13.4792 20.4042 13.2875 20.2125C13.0958 20.0208 13 19.7833 13 19.5V10.975C12.1 10.675 11.375 10.0458 10.825 9.0875C10.275 8.12917 10 7.04167 10 5.825C10 4.34167 10.3917 3.08333 11.175 2.05C11.9583 1.01667 12.9 0.5 14 0.5C15.1 0.5 16.0417 1.02083 16.825 2.0625C17.6083 3.10417 18 4.36667 18 5.85C18 7.06667 17.725 8.15 17.175 9.1C16.625 10.05 15.9 10.675 15 10.975V19.5C15 19.7833 14.9042 20.0208 14.7125 20.2125C14.5208 20.4042 14.2833 20.5 14 20.5Z" fill="#1C1B1F"/>
</svg>
