<svg width="20" height="20" viewBox="0 0 20 20" fill="none" xmlns="http://www.w3.org/2000/svg">
<path d="M2.27126 17.2L9.32126 14.7L4.77126 10.15L2.27126 17.2ZM19.3423 5.77498C19.2243 5.89931 19.0861 5.96148 18.9278 5.96148C18.7694 5.96148 18.6313 5.90256 18.5135 5.78473L18.448 5.71923C18.1762 5.44739 17.8461 5.31148 17.4578 5.31148C17.0693 5.31148 16.7391 5.44739 16.4673 5.71923L11.4018 10.7847C11.2839 10.9026 11.1458 10.9631 10.9875 10.9662C10.8292 10.9696 10.6878 10.9091 10.5635 10.7847C10.4392 10.6602 10.377 10.5205 10.377 10.3655C10.377 10.2103 10.4392 10.0706 10.5635 9.94623L15.6288 4.88073C16.1301 4.37956 16.7365 4.12898 17.448 4.12898C18.1595 4.12898 18.7659 4.37956 19.2673 4.88073L19.3423 4.95573C19.4603 5.07373 19.5193 5.21031 19.5193 5.36548C19.5193 5.52048 19.4603 5.65698 19.3423 5.77498ZM6.87876 2.89998C7.00309 2.77564 7.14285 2.71348 7.29801 2.71348C7.45318 2.71348 7.59293 2.77564 7.71726 2.89998L7.92876 3.11148C8.4621 3.64481 8.72876 4.28456 8.72876 5.03073C8.72876 5.77689 8.4621 6.41664 7.92876 6.94998L7.74801 7.13073C7.63018 7.24873 7.49209 7.30931 7.33376 7.31248C7.17543 7.31564 7.03401 7.25506 6.90951 7.13073C6.78518 7.00639 6.72301 6.86664 6.72301 6.71148C6.72301 6.55648 6.78518 6.41673 6.90951 6.29223L7.09051 6.11148C7.38784 5.81414 7.53651 5.45389 7.53651 5.03073C7.53651 4.60773 7.38784 4.24748 7.09051 3.94998L6.87876 3.73848C6.76093 3.62048 6.70035 3.48231 6.69701 3.32398C6.69384 3.16564 6.75443 3.02431 6.87876 2.89998ZM10.7365 1.16923C10.8608 1.04489 11.0006 0.982727 11.1558 0.982727C11.3109 0.982727 11.4507 1.04489 11.575 1.16923L12.6403 2.23473C13.1481 2.74239 13.402 3.35198 13.402 4.06348C13.402 4.77498 13.1481 5.38456 12.6403 5.89223L9.57501 8.95773C9.45701 9.07573 9.31885 9.13631 9.16051 9.13948C9.00218 9.14264 8.86084 9.08206 8.73651 8.95773C8.61218 8.83339 8.55001 8.69364 8.55001 8.53848C8.55001 8.38331 8.61218 8.24356 8.73651 8.11923L11.802 5.05398C12.0737 4.78214 12.2095 4.45198 12.2095 4.06348C12.2095 3.67498 12.0737 3.34481 11.802 3.07298L10.7365 2.00773C10.6185 1.88973 10.5579 1.75156 10.5548 1.59323C10.5516 1.43489 10.6122 1.29356 10.7365 1.16923ZM17.8518 12.6115C17.7274 12.7358 17.5877 12.798 17.4325 12.798C17.2775 12.798 17.1378 12.7358 17.0135 12.6115L16.2365 11.8347C15.9327 11.5307 15.5608 11.3787 15.121 11.3787C14.6813 11.3787 14.3096 11.5307 14.0058 11.8347L13.2288 12.6115C13.1108 12.7295 12.9726 12.7901 12.8143 12.7932C12.6559 12.7964 12.5146 12.7358 12.3903 12.6115C12.2659 12.4871 12.2038 12.3474 12.2038 12.1922C12.2038 12.0372 12.2659 11.8975 12.3903 11.773L13.1673 10.9962C13.7069 10.4564 14.3582 10.1865 15.121 10.1865C15.8838 10.1865 16.5352 10.4564 17.075 10.9962L17.8518 11.773C17.9698 11.891 18.0303 12.0291 18.0335 12.1875C18.0367 12.3458 17.9761 12.4871 17.8518 12.6115ZM0.430761 17.8652L3.70576 8.75973C3.78276 8.56223 3.8991 8.41156 4.05476 8.30773C4.21059 8.20389 4.37893 8.15198 4.55976 8.15198C4.68026 8.15198 4.79243 8.17214 4.89626 8.21248C5.00009 8.25298 5.09876 8.31998 5.19226 8.41348L11.0578 14.2787C11.1513 14.3724 11.2182 14.4711 11.2585 14.575C11.299 14.6788 11.3193 14.791 11.3193 14.9115C11.3193 15.0923 11.2673 15.2606 11.1635 15.4162C11.0597 15.5721 10.909 15.6884 10.7115 15.7652L1.60576 19.0402C1.42509 19.1107 1.25109 19.1216 1.08376 19.073C0.916428 19.0243 0.772512 18.9397 0.652012 18.8192C0.531512 18.6987 0.446928 18.5548 0.398261 18.3875C0.349428 18.2201 0.360261 18.0461 0.430761 17.8652Z" fill="#1C1B1F"/>
</svg>
