<svg width="20" height="22" viewBox="0 0 20 22" fill="none" xmlns="http://www.w3.org/2000/svg">
<path d="M2 19.5V10.5C1.45 10.5 0.979167 10.3042 0.5875 9.9125C0.195833 9.52083 0 9.05 0 8.5V6.5C0 5.95 0.195833 5.47917 0.5875 5.0875C0.979167 4.69583 1.45 4.5 2 4.5H5.2C5.11667 4.35 5.0625 4.19167 5.0375 4.025C5.0125 3.85833 5 3.68333 5 3.5C5 2.66667 5.29167 1.95833 5.875 1.375C6.45833 0.791667 7.16667 0.5 8 0.5C8.38333 0.5 8.74167 0.570833 9.075 0.7125C9.40833 0.854167 9.71667 1.05 10 1.3C10.2833 1.03333 10.5917 0.833333 10.925 0.7C11.2583 0.566667 11.6167 0.5 12 0.5C12.8333 0.5 13.5417 0.791667 14.125 1.375C14.7083 1.95833 15 2.66667 15 3.5C15 3.68333 14.9833 3.85417 14.95 4.0125C14.9167 4.17083 14.8667 4.33333 14.8 4.5H18C18.55 4.5 19.0208 4.69583 19.4125 5.0875C19.8042 5.47917 20 5.95 20 6.5V8.5C20 9.05 19.8042 9.52083 19.4125 9.9125C19.0208 10.3042 18.55 10.5 18 10.5V19.5C18 20.05 17.8042 20.5208 17.4125 20.9125C17.0208 21.3042 16.55 21.5 16 21.5H4C3.45 21.5 2.97917 21.3042 2.5875 20.9125C2.19583 20.5208 2 20.05 2 19.5ZM12 2.5C11.7167 2.5 11.4792 2.59583 11.2875 2.7875C11.0958 2.97917 11 3.21667 11 3.5C11 3.78333 11.0958 4.02083 11.2875 4.2125C11.4792 4.40417 11.7167 4.5 12 4.5C12.2833 4.5 12.5208 4.40417 12.7125 4.2125C12.9042 4.02083 13 3.78333 13 3.5C13 3.21667 12.9042 2.97917 12.7125 2.7875C12.5208 2.59583 12.2833 2.5 12 2.5ZM7 3.5C7 3.78333 7.09583 4.02083 7.2875 4.2125C7.47917 4.40417 7.71667 4.5 8 4.5C8.28333 4.5 8.52083 4.40417 8.7125 4.2125C8.90417 4.02083 9 3.78333 9 3.5C9 3.21667 8.90417 2.97917 8.7125 2.7875C8.52083 2.59583 8.28333 2.5 8 2.5C7.71667 2.5 7.47917 2.59583 7.2875 2.7875C7.09583 2.97917 7 3.21667 7 3.5ZM2 6.5V8.5H9V6.5H2ZM9 19.5V10.5H4V19.5H9ZM11 19.5H16V10.5H11V19.5ZM18 8.5V6.5H11V8.5H18Z" fill="#1C1B1F"/>
</svg>
