<svg width="16" height="17" viewBox="0 0 16 17" fill="none" xmlns="http://www.w3.org/2000/svg">
<path d="M6.75 10.75V12C6.75 12.3472 6.87142 12.6423 7.11425 12.8855C7.35708 13.1285 7.65192 13.25 7.99875 13.25C8.34575 13.25 8.641 13.1285 8.8845 12.8855C9.12817 12.6423 9.25 12.3472 9.25 12V10.75H10.5C10.8472 10.75 11.1423 10.6286 11.3855 10.3857C11.6285 10.1429 11.75 9.84808 11.75 9.50125C11.75 9.15425 11.6285 8.859 11.3855 8.6155C11.1423 8.37183 10.8472 8.25 10.5 8.25H9.25V7C9.25 6.65283 9.12858 6.35766 8.88575 6.1145C8.64292 5.8715 8.34808 5.75 8.00125 5.75C7.65425 5.75 7.359 5.8715 7.1155 6.1145C6.87183 6.35766 6.75 6.65283 6.75 7V8.25H5.5C5.15283 8.25 4.85767 8.37141 4.6145 8.61425C4.3715 8.85708 4.25 9.15191 4.25 9.49875C4.25 9.84575 4.3715 10.141 4.6145 10.3845C4.85767 10.6282 5.15283 10.75 5.5 10.75H6.75ZM2.30775 17C1.81058 17 1.385 16.823 1.031 16.469C0.677 16.115 0.5 15.6894 0.5 15.1922V6.65375C0.5 6.36758 0.564 6.0965 0.692 5.8405C0.820166 5.58433 0.997167 5.37341 1.223 5.20775L6.9155 0.928995C7.23133 0.687828 7.59233 0.567245 7.9985 0.567245C8.40467 0.567245 8.76667 0.687828 9.0845 0.928995L14.777 5.20775C15.0028 5.37341 15.1798 5.58433 15.308 5.8405C15.436 6.0965 15.5 6.36758 15.5 6.65375V15.1922C15.5 15.6894 15.323 16.115 14.969 16.469C14.615 16.823 14.1894 17 13.6923 17H2.30775ZM2.30775 15.5H13.6923C13.7821 15.5 13.8558 15.4712 13.9135 15.4135C13.9712 15.3558 14 15.2821 14 15.1922V6.65375C14 6.60258 13.9888 6.55616 13.9663 6.5145C13.9439 6.47283 13.9135 6.43591 13.875 6.40375L8.18275 2.13475C8.13142 2.08975 8.0705 2.06725 8 2.06725C7.9295 2.06725 7.86858 2.08975 7.81725 2.13475L2.125 6.40375C2.0865 6.43591 2.05608 6.47283 2.03375 6.5145C2.01125 6.55616 2 6.60258 2 6.65375V15.1922C2 15.2821 2.02883 15.3558 2.0865 15.4135C2.14417 15.4712 2.21792 15.5 2.30775 15.5Z" fill="#1C1B1F"/>
</svg>
