<svg width="16" height="18" viewBox="0 0 16 18" fill="none" xmlns="http://www.w3.org/2000/svg">
<path d="M1.49996 16.0833H5.4999V10.5832C5.4999 10.3353 5.58377 10.1275 5.7515 9.95979C5.91924 9.79223 6.12706 9.70846 6.37496 9.70846H9.62496C9.87286 9.70846 10.0807 9.79223 10.2484 9.95979C10.4162 10.1275 10.5 10.3353 10.5 10.5832V16.0833H14.5V6.66673C14.5 6.5555 14.4757 6.45476 14.4271 6.36448C14.3785 6.2742 14.3125 6.19439 14.2291 6.12506L8.39592 1.72916C8.2847 1.63203 8.15271 1.58346 7.99996 1.58346C7.84721 1.58346 7.71522 1.63203 7.604 1.72916L1.77079 6.12506C1.68738 6.19439 1.62138 6.2742 1.57281 6.36448C1.52424 6.45476 1.49996 6.5555 1.49996 6.66673V16.0833ZM0.416626 16.0833V6.66673C0.416626 6.38957 0.478647 6.12705 0.602688 5.87914C0.726549 5.63124 0.897897 5.42712 1.11673 5.26679L6.94994 0.850038C7.25526 0.61676 7.60418 0.500122 7.99671 0.500122C8.38924 0.500122 8.74033 0.61676 9.04998 0.850038L14.8832 5.26679C15.102 5.42712 15.2734 5.63124 15.3972 5.87914C15.5213 6.12705 15.5833 6.38957 15.5833 6.66673V16.0833C15.5833 16.3737 15.4753 16.6268 15.2594 16.8427C15.0434 17.0587 14.7903 17.1667 14.5 17.1667H10.2918C10.0437 17.1667 9.83585 17.0828 9.66829 16.9151C9.50056 16.7473 9.41669 16.5395 9.41669 16.2916V10.7918H6.58323V16.2916C6.58323 16.5395 6.49936 16.7473 6.33163 16.9151C6.16407 17.0828 5.95625 17.1667 5.70817 17.1667H1.49996C1.20963 17.1667 0.956487 17.0587 0.740543 16.8427C0.524598 16.6268 0.416626 16.3737 0.416626 16.0833Z" fill="#8A8A8A"/>
</svg>
