<svg width="21" height="22" viewBox="0 0 21 22" fill="none" xmlns="http://www.w3.org/2000/svg">
<mask id="mask0_1_566" style="mask-type:alpha" maskUnits="userSpaceOnUse" x="0" y="0" width="21" height="22">
<rect width="21" height="21.913" fill="#D9D9D9"/>
</mask>
<g mask="url(#mask0_1_566)">
<path d="M9.75619 20.0869C9.53744 20.0869 9.31869 20.0413 9.09994 19.95C8.88119 19.8587 8.68431 19.7217 8.50931 19.5391L2.25306 13.0109C2.07806 12.8283 1.95046 12.6266 1.87025 12.406C1.79004 12.1853 1.74994 11.9609 1.74994 11.7326C1.74994 11.5043 1.79004 11.2761 1.87025 11.0478C1.95046 10.8196 2.07806 10.6141 2.25306 10.4315L9.95306 2.37391C10.1135 2.20652 10.3031 2.07336 10.5218 1.97445C10.7406 1.87554 10.9666 1.82608 11.1999 1.82608H17.4781C17.9593 1.82608 18.3713 2.00488 18.714 2.36249C19.0567 2.7201 19.2281 3.14999 19.2281 3.65217V10.2033C19.2281 10.4467 19.1843 10.6788 19.0968 10.8994C19.0093 11.1201 18.8854 11.3141 18.7249 11.4815L11.0031 19.5391C10.8281 19.7217 10.6312 19.8587 10.4124 19.95C10.1937 20.0413 9.97494 20.0869 9.75619 20.0869ZM9.75619 18.2609L17.4781 10.1804V3.65217H11.2218L3.49994 11.7326L9.75619 18.2609ZM15.2906 7.30434C15.6551 7.30434 15.965 7.17119 16.2203 6.90488C16.4755 6.63858 16.6031 6.31521 16.6031 5.93478C16.6031 5.55434 16.4755 5.23097 16.2203 4.96467C15.965 4.69836 15.6551 4.56521 15.2906 4.56521C14.926 4.56521 14.6161 4.69836 14.3609 4.96467C14.1057 5.23097 13.9781 5.55434 13.9781 5.93478C13.9781 6.31521 14.1057 6.63858 14.3609 6.90488C14.6161 7.17119 14.926 7.30434 15.2906 7.30434Z" fill="#1C1B1F"/>
</g>
</svg>
