<svg width="20" height="21" viewBox="0 0 20 21" fill="none" xmlns="http://www.w3.org/2000/svg">
<path d="M13.5 9.5C13.9167 9.5 14.2708 9.35417 14.5625 9.0625C14.8542 8.77083 15 8.41667 15 8C15 7.58333 14.8542 7.22917 14.5625 6.9375C14.2708 6.64583 13.9167 6.5 13.5 6.5C13.0833 6.5 12.7292 6.64583 12.4375 6.9375C12.1458 7.22917 12 7.58333 12 8C12 8.41667 12.1458 8.77083 12.4375 9.0625C12.7292 9.35417 13.0833 9.5 13.5 9.5ZM6.5 9.5C6.91667 9.5 7.27083 9.35417 7.5625 9.0625C7.85417 8.77083 8 8.41667 8 8C8 7.58333 7.85417 7.22917 7.5625 6.9375C7.27083 6.64583 6.91667 6.5 6.5 6.5C6.08333 6.5 5.72917 6.64583 5.4375 6.9375C5.14583 7.22917 5 7.58333 5 8C5 8.41667 5.14583 8.77083 5.4375 9.0625C5.72917 9.35417 6.08333 9.5 6.5 9.5ZM10 20.5C8.61667 20.5 7.31667 20.2375 6.1 19.7125C4.88333 19.1875 3.825 18.475 2.925 17.575C2.025 16.675 1.3125 15.6167 0.7875 14.4C0.2625 13.1833 0 11.8833 0 10.5C0 9.11667 0.2625 7.81667 0.7875 6.6C1.3125 5.38333 2.025 4.325 2.925 3.425C3.825 2.525 4.88333 1.8125 6.1 1.2875C7.31667 0.7625 8.61667 0.5 10 0.5C11.3833 0.5 12.6833 0.7625 13.9 1.2875C15.1167 1.8125 16.175 2.525 17.075 3.425C17.975 4.325 18.6875 5.38333 19.2125 6.6C19.7375 7.81667 20 9.11667 20 10.5C20 11.8833 19.7375 13.1833 19.2125 14.4C18.6875 15.6167 17.975 16.675 17.075 17.575C16.175 18.475 15.1167 19.1875 13.9 19.7125C12.6833 20.2375 11.3833 20.5 10 20.5ZM10 18.5C12.2333 18.5 14.125 17.725 15.675 16.175C17.225 14.625 18 12.7333 18 10.5C18 8.26667 17.225 6.375 15.675 4.825C14.125 3.275 12.2333 2.5 10 2.5C7.76667 2.5 5.875 3.275 4.325 4.825C2.775 6.375 2 8.26667 2 10.5C2 12.7333 2.775 14.625 4.325 16.175C5.875 17.725 7.76667 18.5 10 18.5ZM10 16C10.9667 16 11.8583 15.7667 12.675 15.3C13.4917 14.8333 14.15 14.2 14.65 13.4C14.75 13.2 14.7417 13 14.625 12.8C14.5083 12.6 14.3333 12.5 14.1 12.5H5.9C5.66667 12.5 5.49167 12.6 5.375 12.8C5.25833 13 5.25 13.2 5.35 13.4C5.85 14.2 6.5125 14.8333 7.3375 15.3C8.1625 15.7667 9.05 16 10 16Z" fill="#1C1B1F"/>
</svg>
