<svg width="20" height="5" viewBox="0 0 20 5" fill="none" xmlns="http://www.w3.org/2000/svg">
<path d="M3.25489 4.91667C2.58503 4.91667 2.01394 4.68221 1.5416 4.21331C1.06945 3.74441 0.833374 3.17494 0.833374 2.50489C0.833374 1.83503 1.06783 1.26394 1.53673 0.791602C2.00563 0.319449 2.5751 0.083374 3.24514 0.083374C3.91501 0.083374 4.4861 0.317825 4.95844 0.786727C5.43059 1.25563 5.66667 1.8251 5.66667 2.49514C5.66667 3.16501 5.43221 3.7361 4.96331 4.20844C4.49423 4.68059 3.92476 4.91667 3.25489 4.91667ZM3.24867 3.83333C3.62603 3.83333 3.94281 3.70568 4.19902 3.45037C4.45523 3.19507 4.58333 2.87873 4.58333 2.50137C4.58333 2.12401 4.45568 1.80723 4.20037 1.55102C3.94507 1.29481 3.62874 1.16671 3.25137 1.16671C2.87401 1.16671 2.55723 1.29436 2.30102 1.54966C2.04481 1.80497 1.91671 2.1213 1.91671 2.49867C1.91671 2.87603 2.04436 3.19281 2.29967 3.44902C2.55479 3.70523 2.87112 3.83333 3.24867 3.83333ZM10.0049 4.91667C9.33501 4.91667 8.76392 4.68221 8.29158 4.21331C7.81943 3.74441 7.58335 3.17494 7.58335 2.50489C7.58335 1.83503 7.81781 1.26394 8.28671 0.791602C8.75561 0.319449 9.32508 0.083374 9.99512 0.083374C10.665 0.083374 11.2361 0.317825 11.7084 0.786727C12.1806 1.25563 12.4166 1.8251 12.4166 2.49514C12.4166 3.16501 12.1822 3.7361 11.7133 4.20844C11.2444 4.68059 10.6749 4.91667 10.0049 4.91667ZM9.99865 3.83333C10.376 3.83333 10.6928 3.70568 10.949 3.45037C11.2052 3.19507 11.3333 2.87873 11.3333 2.50137C11.3333 2.12401 11.2057 1.80723 10.9504 1.55102C10.695 1.29481 10.3787 1.16671 10.0014 1.16671C9.62399 1.16671 9.30721 1.29436 9.051 1.54966C8.79479 1.80497 8.66669 2.1213 8.66669 2.49867C8.66669 2.87603 8.79434 3.19281 9.04964 3.44902C9.30495 3.70523 9.62129 3.83333 9.99865 3.83333ZM16.7549 4.91667C16.085 4.91667 15.5139 4.68221 15.0416 4.21331C14.5694 3.74441 14.3333 3.17494 14.3333 2.50489C14.3333 1.83503 14.5678 1.26394 15.0367 0.791602C15.5058 0.319449 16.0752 0.083374 16.7451 0.083374C17.415 0.083374 17.9861 0.317825 18.4584 0.786727C18.9305 1.25563 19.1666 1.8251 19.1666 2.49514C19.1666 3.16501 18.9322 3.7361 18.4633 4.20844C17.9944 4.68059 17.4249 4.91667 16.7549 4.91667Z" fill="#8A8A8A"/>
</svg>
