<svg width="20" height="18" viewBox="0 0 20 18" fill="none" xmlns="http://www.w3.org/2000/svg">
<path d="M1.83333 18V13.75L14.4594 0.6C14.651 0.4 14.8667 0.25 15.1063 0.15C15.3458 0.05 15.5854 0 15.825 0C16.0806 0 16.3241 0.05 16.5557 0.15C16.7873 0.25 16.991 0.4 17.1667 0.6L18.5083 2C18.7 2.18333 18.8438 2.39583 18.9396 2.6375C19.0354 2.87917 19.0833 3.13333 19.0833 3.4C19.0833 3.65 19.0354 3.9 18.9396 4.15C18.8438 4.4 18.7 4.625 18.5083 4.825L5.90625 18H1.83333ZM3.75 16H5.09167L14.5073 6.2L13.8365 5.475L13.1417 4.775L3.75 14.6V16ZM13.8365 5.475L13.1417 4.775L14.5073 6.2L13.8365 5.475ZM11.4167 18C12.5986 18 13.6927 17.6917 14.699 17.075C15.7052 16.4583 16.2083 15.6 16.2083 14.5C16.2083 13.9 16.0566 13.3833 15.7531 12.95C15.4497 12.5167 15.0424 12.1417 14.5313 11.825L13.1177 13.3C13.4851 13.4667 13.7726 13.65 13.9802 13.85C14.1878 14.05 14.2917 14.2667 14.2917 14.5C14.2917 14.8833 14.0002 15.2292 13.4172 15.5375C12.8342 15.8458 12.1674 16 11.4167 16C11.1451 16 10.9175 16.0958 10.7339 16.2875C10.5502 16.4792 10.4583 16.7167 10.4583 17C10.4583 17.2833 10.5502 17.5208 10.7339 17.7125C10.9175 17.9042 11.1451 18 11.4167 18ZM2.38438 10.35L3.82188 8.85C3.50243 8.71667 3.25087 8.57917 3.06719 8.4375C2.88351 8.29583 2.79167 8.15 2.79167 8C2.79167 7.8 2.93542 7.6 3.22292 7.4C3.51042 7.2 4.11736 6.89167 5.04375 6.475C6.44931 5.84167 7.38368 5.26667 7.84688 4.75C8.31007 4.23333 8.54167 3.65 8.54167 3C8.54167 2.08333 8.19028 1.35417 7.4875 0.8125C6.78472 0.270833 5.85833 0 4.70833 0C3.98958 0 3.3467 0.133333 2.77969 0.4C2.21267 0.666667 1.77743 0.991667 1.47396 1.375C1.29826 1.59167 1.22639 1.83333 1.25833 2.1C1.29028 2.36667 1.41007 2.58333 1.61771 2.75C1.82535 2.93333 2.05694 3.00833 2.3125 2.975C2.56806 2.94167 2.78368 2.83333 2.95938 2.65C3.18299 2.41667 3.43056 2.25 3.70208 2.15C3.97361 2.05 4.30903 2 4.70833 2C5.36319 2 5.84635 2.1 6.15781 2.3C6.46927 2.5 6.625 2.73333 6.625 3C6.625 3.23333 6.48524 3.44583 6.20573 3.6375C5.92622 3.82917 5.28333 4.16667 4.27708 4.65C2.99931 5.23333 2.11285 5.7625 1.61771 6.2375C1.12257 6.7125 0.875 7.3 0.875 8C0.875 8.53333 1.01076 8.9875 1.28229 9.3625C1.55382 9.7375 1.92118 10.0667 2.38438 10.35Z" fill="#686868"/>
</svg>
