<svg width="10" height="10" viewBox="0 0 10 10" fill="none" xmlns="http://www.w3.org/2000/svg">
<path d="M5.05831 4.32914L5.67081 4.94164L8.70414 1.90831L8.09164 1.29581L5.05831 4.32914ZM1.14998 8.84998H1.76248L4.94164 5.67081L4.32914 5.05831L1.14998 8.23748V8.84998ZM6.04998 6.04998L3.94998 3.94998L5.93331 1.96664L5.18956 1.22289L2.25831 4.15414L1.51456 3.41039L4.46039 0.479142C4.66456 0.274976 4.91005 0.172892 5.19685 0.172892C5.48366 0.172892 5.72914 0.274976 5.93331 0.479142L6.67706 1.22289L7.59581 0.304142C7.73192 0.168031 7.8972 0.0999756 8.09164 0.0999756C8.28609 0.0999756 8.45137 0.168031 8.58748 0.304142L9.69581 1.41248C9.83192 1.54859 9.89755 1.71143 9.89268 1.90102C9.88782 2.0906 9.8222 2.25831 9.69581 2.40414L6.04998 6.04998ZM2.19998 9.89998H0.0999756V7.79998L3.94998 3.94998L6.04998 6.04998L2.19998 9.89998Z" fill="#596F7C"/>
</svg>
