<svg width="20" height="21" viewBox="0 0 20 21" fill="none" xmlns="http://www.w3.org/2000/svg">
<path d="M7.5 20.5C6.51667 20.5 5.6875 20.1625 5.0125 19.4875C4.3375 18.8125 4 17.9833 4 17C4 16.85 4.02083 16.7333 4.0625 16.65C4.10417 16.5667 4.1 16.5 4.05 16.45C4 16.4 3.93333 16.3958 3.85 16.4375C3.76667 16.4792 3.65 16.5 3.5 16.5C2.51667 16.5 1.6875 16.1625 1.0125 15.4875C0.3375 14.8125 0 13.9833 0 13C0 12.0167 0.3375 11.1875 1.0125 10.5125C1.6875 9.8375 2.51667 9.5 3.5 9.5C3.88333 9.5 4.23333 9.55 4.55 9.65C4.86667 9.75 5.16667 9.9 5.45 10.1L9.6 5.95C9.4 5.66667 9.25 5.36667 9.15 5.05C9.05 4.73333 9 4.38333 9 4C9 3.01667 9.3375 2.1875 10.0125 1.5125C10.6875 0.8375 11.5167 0.5 12.5 0.5C13.4833 0.5 14.3125 0.8375 14.9875 1.5125C15.6625 2.1875 16 3.01667 16 4C16 4.15 15.9792 4.26667 15.9375 4.35C15.8958 4.43333 15.9 4.5 15.95 4.55C16 4.6 16.0667 4.60417 16.15 4.5625C16.2333 4.52083 16.35 4.5 16.5 4.5C17.4833 4.5 18.3125 4.8375 18.9875 5.5125C19.6625 6.1875 20 7.01667 20 8C20 8.98333 19.6625 9.8125 18.9875 10.4875C18.3125 11.1625 17.4833 11.5 16.5 11.5C16.1167 11.5 15.7667 11.45 15.45 11.35C15.1333 11.25 14.8333 11.1 14.55 10.9L10.4 15.05C10.6 15.3333 10.75 15.6333 10.85 15.95C10.95 16.2667 11 16.6167 11 17C11 17.9833 10.6625 18.8125 9.9875 19.4875C9.3125 20.1625 8.48333 20.5 7.5 20.5ZM7.5 18.5C7.93333 18.5 8.29167 18.3583 8.575 18.075C8.85833 17.7917 9 17.4333 9 17C9 16.85 8.97917 16.7042 8.9375 16.5625C8.89583 16.4208 8.83333 16.2833 8.75 16.15C8.46667 15.75 8.35 15.3208 8.4 14.8625C8.45 14.4042 8.65 14 9 13.65L13.15 9.5C13.5 9.15 13.9042 8.95 14.3625 8.9C14.8208 8.85 15.25 8.96667 15.65 9.25C15.7833 9.33333 15.9208 9.39583 16.0625 9.4375C16.2042 9.47917 16.35 9.5 16.5 9.5C16.9333 9.5 17.2917 9.35833 17.575 9.075C17.8583 8.79167 18 8.43333 18 8C18 7.56667 17.8583 7.20833 17.575 6.925C17.2917 6.64167 16.9333 6.5 16.5 6.5C15.9167 6.5 15.5083 6.47083 15.275 6.4125C15.0417 6.35417 14.8 6.2 14.55 5.95C14.3 5.7 14.1458 5.45833 14.0875 5.225C14.0292 4.99167 14 4.58333 14 4C14 3.56667 13.8583 3.20833 13.575 2.925C13.2917 2.64167 12.9333 2.5 12.5 2.5C12.0667 2.5 11.7083 2.64167 11.425 2.925C11.1417 3.20833 11 3.56667 11 4C11 4.18333 11.0167 4.3375 11.05 4.4625C11.0833 4.5875 11.15 4.71667 11.25 4.85C11.5333 5.25 11.65 5.67917 11.6 6.1375C11.55 6.59583 11.35 7 11 7.35L6.85 11.5C6.5 11.85 6.09583 12.05 5.6375 12.1C5.17917 12.15 4.75 12.0333 4.35 11.75C4.21667 11.6667 4.07917 11.6042 3.9375 11.5625C3.79583 11.5208 3.65 11.5 3.5 11.5C3.06667 11.5 2.70833 11.6417 2.425 11.925C2.14167 12.2083 2 12.5667 2 13C2 13.4333 2.14167 13.7917 2.425 14.075C2.70833 14.3583 3.06667 14.5 3.5 14.5C4.08333 14.5 4.49167 14.5292 4.725 14.5875C4.95833 14.6458 5.2 14.8 5.45 15.05C5.7 15.3 5.85417 15.5417 5.9125 15.775C5.97083 16.0083 6 16.4167 6 17C6 17.4333 6.14167 17.7917 6.425 18.075C6.70833 18.3583 7.06667 18.5 7.5 18.5Z" fill="#1C1B1F"/>
</svg>
