<svg width="14" height="23" viewBox="0 0 14 23" fill="none" xmlns="http://www.w3.org/2000/svg">
<path d="M4.75 14C4.53333 14 4.35417 13.9292 4.2125 13.7875C4.07083 13.6458 4 13.4667 4 13.25C4 13.0333 4.07083 12.8542 4.2125 12.7125C4.35417 12.5708 4.53333 12.5 4.75 12.5H9.25C9.46667 12.5 9.64583 12.5708 9.7875 12.7125C9.92917 12.8542 10 13.0333 10 13.25C10 13.4667 9.92917 13.6458 9.7875 13.7875C9.64583 13.9292 9.46667 14 9.25 14H4.75ZM3.75 11C3.53333 11 3.35417 10.9292 3.2125 10.7875C3.07083 10.6458 3 10.4667 3 10.25C3 10.0333 3.07083 9.85417 3.2125 9.7125C3.35417 9.57083 3.53333 9.5 3.75 9.5H10.25C10.4667 9.5 10.6458 9.57083 10.7875 9.7125C10.9292 9.85417 11 10.0333 11 10.25C11 10.4667 10.9292 10.6458 10.7875 10.7875C10.6458 10.9292 10.4667 11 10.25 11H3.75ZM2 22.5C1.45 22.5 0.979167 22.3042 0.5875 21.9125C0.195833 21.5208 0 21.05 0 20.5V2.5C0 1.95 0.195833 1.47917 0.5875 1.0875C0.979167 0.695833 1.45 0.5 2 0.5H12C12.55 0.5 13.0208 0.695833 13.4125 1.0875C13.8042 1.47917 14 1.95 14 2.5V20.5C14 21.05 13.8042 21.5208 13.4125 21.9125C13.0208 22.3042 12.55 22.5 12 22.5H2ZM2 19.5V20.5H12V19.5H2ZM2 17.5H12V5.5H2V17.5ZM2 3.5H12V2.5H2V3.5Z" fill="#1C1B1F"/>
</svg>
