<svg width="15" height="16" viewBox="0 0 15 16" fill="none" xmlns="http://www.w3.org/2000/svg">
<path d="M1.51044 8.06928C1.51044 8.85061 1.65219 9.61019 1.9357 10.348C2.21904 11.0859 2.66092 11.7673 3.26131 12.3923L3.86937 13.027V11.0385C3.86937 10.826 3.93829 10.6479 4.07614 10.504C4.21398 10.3604 4.38472 10.2885 4.58836 10.2885C4.79217 10.2885 4.96291 10.3604 5.10059 10.504C5.23811 10.6479 5.30687 10.826 5.30687 11.0385V14.7693C5.30687 15.0253 5.2239 15.2399 5.05795 15.4133C4.89184 15.5864 4.68611 15.673 4.44078 15.673H0.865479C0.661833 15.673 0.49109 15.6011 0.353249 15.4573C0.215569 15.3134 0.146729 15.1353 0.146729 14.9228C0.146729 14.7101 0.215569 14.532 0.353249 14.3885C0.49109 14.2449 0.661833 14.173 0.865479 14.173H2.94794L2.25123 13.477C1.4638 12.7167 0.903892 11.865 0.57151 10.922C0.239128 9.97919 0.072937 9.02828 0.072937 8.06928C0.072937 6.56028 0.443972 5.18594 1.18604 3.94628C1.92811 2.70644 2.92454 1.75128 4.17532 1.08078C4.34974 0.979442 4.5331 0.967942 4.72541 1.04628C4.91771 1.12444 5.04461 1.26378 5.1061 1.46428C5.16744 1.65228 5.16368 1.84211 5.09484 2.03378C5.02584 2.22561 4.90366 2.37269 4.72828 2.47503C3.74663 3.02753 2.96487 3.79961 2.383 4.79128C1.80129 5.78311 1.51044 6.87578 1.51044 8.06928ZM13.4896 7.93078C13.4896 7.14944 13.3479 6.38986 13.0643 5.65203C12.781 4.91419 12.3391 4.23278 11.7387 3.60778L11.1307 2.97303V4.96153C11.1307 5.17403 11.0617 5.35219 10.9239 5.49603C10.7861 5.63969 10.6153 5.71153 10.4117 5.71153C10.2079 5.71153 10.0371 5.63969 9.89945 5.49603C9.76193 5.35219 9.69317 5.17403 9.69317 4.96153V1.23078C9.69317 0.974775 9.77614 0.760109 9.94209 0.586775C10.1082 0.413609 10.3139 0.327026 10.5593 0.327026H14.1346C14.3382 0.327026 14.509 0.398943 14.6468 0.542776C14.7845 0.68661 14.8533 0.864777 14.8533 1.07728C14.8533 1.28994 14.7845 1.46803 14.6468 1.61153C14.509 1.75519 14.3382 1.82703 14.1346 1.82703H12.0521L12.7488 2.52303C13.5057 3.31286 14.0581 4.17128 14.4058 5.09828C14.7533 6.02511 14.9271 6.96978 14.9271 7.93228C14.9271 9.44028 14.5576 10.8125 13.8186 12.049C13.0795 13.2855 12.0846 14.239 10.8338 14.9095C10.6594 15.0109 10.476 15.024 10.2837 14.949C10.0914 14.874 9.96461 14.7363 9.90328 14.5358C9.84179 14.3478 9.84578 14.1577 9.91526 13.9655C9.98458 13.7732 10.1034 13.6264 10.2718 13.525C11.2534 12.9725 12.0352 12.2004 12.617 11.2088C13.1988 10.2169 13.4896 9.12428 13.4896 7.93078Z" fill="#1C1B1F"/>
</svg>
