<svg width="20" height="17" viewBox="0 0 20 17" fill="none" xmlns="http://www.w3.org/2000/svg">
<path d="M4.50001 6.6135L3.10576 7.3845C2.89176 7.505 2.67059 7.53675 2.44226 7.47975C2.21409 7.42275 2.03976 7.28717 1.91926 7.073L0.304011 4.24625C0.183511 4.03208 0.151761 3.80933 0.208761 3.578C0.265761 3.3465 0.401345 3.1705 0.615511 3.05L5.86551 0H7.34626C7.51543 0 7.65068 0.0506671 7.75201 0.152C7.85318 0.253334 7.90376 0.388583 7.90376 0.55775V0.903999C7.90376 1.47317 8.11085 1.96483 8.52501 2.379C8.93918 2.793 9.43085 3 10 3C10.5692 3 11.0608 2.793 11.475 2.379C11.8892 1.96483 12.0963 1.47317 12.0963 0.903999V0.55775C12.0963 0.388583 12.1468 0.253334 12.248 0.152C12.3493 0.0506671 12.4846 0 12.6538 0H14.1345L19.3845 3.05C19.5987 3.1705 19.7343 3.3465 19.7913 3.578C19.8483 3.80933 19.8165 4.03208 19.696 4.24625L18.0808 7.073C17.9603 7.28717 17.7884 7.42017 17.5653 7.472C17.3423 7.524 17.1186 7.48975 16.8943 7.36925L15.5 6.62875V16.1152C15.5 16.3666 15.4153 16.5768 15.246 16.746C15.0768 16.9153 14.8666 17 14.6153 17H5.38476C5.13343 17 4.92318 16.9153 4.75401 16.746C4.58468 16.5768 4.50001 16.3666 4.50001 16.1152V6.6135ZM6.00001 4.1V15.5H14V4.1L17.0808 5.7905L18.1115 4.05L13.8213 1.53075H13.5038C13.3499 2.37442 12.9513 3.08017 12.3078 3.648C11.6641 4.216 10.8948 4.5 10 4.5C9.10518 4.5 8.33593 4.216 7.69226 3.648C7.04876 3.08017 6.65009 2.37442 6.49626 1.53075H6.17876L1.88851 4.05L2.91926 5.7905L6.00001 4.1Z" fill="#1C1B1F"/>
</svg>
