<svg width="18" height="22" viewBox="0 0 18 22" fill="none" xmlns="http://www.w3.org/2000/svg">
<path d="M2 21.5C1.45 21.5 0.979167 21.3042 0.5875 20.9125C0.195833 20.5208 0 20.05 0 19.5V7.5C0 6.95 0.195833 6.47917 0.5875 6.0875C0.979167 5.69583 1.45 5.5 2 5.5H4C4 4.11667 4.4875 2.9375 5.4625 1.9625C6.4375 0.9875 7.61667 0.5 9 0.5C10.3833 0.5 11.5625 0.9875 12.5375 1.9625C13.5125 2.9375 14 4.11667 14 5.5H16C16.55 5.5 17.0208 5.69583 17.4125 6.0875C17.8042 6.47917 18 6.95 18 7.5V19.5C18 20.05 17.8042 20.5208 17.4125 20.9125C17.0208 21.3042 16.55 21.5 16 21.5H2ZM2 19.5H16V7.5H2V19.5ZM6 5.5H12C12 4.66667 11.7083 3.95833 11.125 3.375C10.5417 2.79167 9.83333 2.5 9 2.5C8.16667 2.5 7.45833 2.79167 6.875 3.375C6.29167 3.95833 6 4.66667 6 5.5ZM8.975 13.5C10.2083 13.5 11.325 13.0917 12.325 12.275C13.325 11.4583 13.8167 10.5417 13.8 9.525C13.8 9.24167 13.7083 9 13.525 8.8C13.3417 8.6 13.1083 8.5 12.825 8.5C12.5917 8.5 12.3833 8.575 12.2 8.725C12.0167 8.875 11.8833 9.1 11.8 9.4C11.6167 10.0333 11.2583 10.5417 10.725 10.925C10.1917 11.3083 9.60833 11.5 8.975 11.5C8.34167 11.5 7.75417 11.3083 7.2125 10.925C6.67083 10.5417 6.31667 10.0333 6.15 9.4C6.06667 9.08333 5.94167 8.85417 5.775 8.7125C5.60833 8.57083 5.40833 8.5 5.175 8.5C4.89167 8.5 4.65417 8.6 4.4625 8.8C4.27083 9 4.175 9.24167 4.175 9.525C4.175 10.5417 4.66667 11.4583 5.65 12.275C6.63333 13.0917 7.74167 13.5 8.975 13.5Z" fill="#1C1B1F"/>
</svg>
