<svg width="24" height="19" viewBox="0 0 24 19" fill="none" xmlns="http://www.w3.org/2000/svg">
<path d="M12 2.779C12.6885 1.893 13.5029 1.20833 14.4432 0.725C15.3836 0.241667 16.3692 0 17.4 0C19.0945 0 20.5347 0.593083 21.7208 1.77925C22.9069 2.96525 23.5 4.4055 23.5 6.1C23.5 6.52317 23.4535 6.94083 23.3605 7.353C23.2675 7.76517 23.1409 8.16608 22.9807 8.55575C22.9102 8.76858 22.7839 8.93267 22.6018 9.048C22.4198 9.1635 22.2234 9.1885 22.0128 9.123C21.8144 9.0705 21.6637 8.95642 21.5605 8.78075C21.4573 8.60508 21.441 8.41925 21.5115 8.22325C21.6615 7.88725 21.7804 7.54233 21.8682 7.1885C21.9561 6.83467 22 6.47183 22 6.1C22 4.81667 21.5542 3.72917 20.6625 2.8375C19.7708 1.94583 18.6833 1.5 17.4 1.5C16.4638 1.5 15.6128 1.76375 14.847 2.29125C14.081 2.81892 13.3916 3.44233 12.7788 4.1615C12.5711 4.41283 12.3115 4.5385 12 4.5385C11.6885 4.5385 11.4289 4.41283 11.2213 4.1615C10.6186 3.44233 9.93108 2.81892 9.15875 2.29125C8.38642 1.76375 7.5335 1.5 6.6 1.5C5.31667 1.5 4.22917 1.94583 3.3375 2.8375C2.44583 3.72917 2 4.81667 2 6.1C2 6.47017 2.04233 6.83417 2.127 7.192C2.2115 7.55 2.32875 7.89692 2.47875 8.23275C2.53275 8.41858 2.51133 8.59675 2.4145 8.76725C2.31767 8.93775 2.17583 9.05067 1.989 9.106C1.77717 9.17517 1.58183 9.15558 1.403 9.04725C1.22417 8.93892 1.09625 8.77833 1.01925 8.5655C0.859083 8.17567 0.7325 7.77367 0.6395 7.3595C0.5465 6.94533 0.5 6.5255 0.5 6.1C0.5 4.4055 1.09308 2.96525 2.27925 1.77925C3.46525 0.593083 4.9055 0 6.6 0C7.63083 0 8.61642 0.241667 9.55675 0.725C10.4971 1.20833 11.3115 1.893 12 2.779ZM1.3655 18.0193C1.12033 18.0193 0.91475 17.9363 0.74875 17.7705C0.582917 17.6045 0.5 17.3989 0.5 17.1538V16.8C0.5 16.3218 0.6805 15.9023 1.0415 15.5413C1.40233 15.1804 1.89367 14.9115 2.5155 14.7345C2.9295 14.6077 3.3035 14.5375 3.6375 14.524C3.9715 14.5105 4.33208 14.5204 4.71925 14.5538C4.87242 14.5688 4.9835 14.6395 5.0525 14.766C5.12133 14.8925 5.12883 15.0243 5.075 15.1615C4.984 15.3897 4.91667 15.6237 4.873 15.8635C4.8295 16.1032 4.80775 16.3506 4.80775 16.6057V17.1152C4.80775 17.3714 4.72108 17.5861 4.54775 17.7593C4.37458 17.9326 4.16 18.0193 3.904 18.0193H1.3655ZM6.5 17.1152V16.6443C6.5 15.6891 7.00825 14.9231 8.02475 14.3462C9.04125 13.7692 10.3672 13.4808 12.0027 13.4808C13.6534 13.4808 14.9823 13.7692 15.9895 14.3462C16.9965 14.9231 17.5 15.6891 17.5 16.6443V17.1152C17.5 17.3714 17.4133 17.5861 17.24 17.7593C17.0668 17.9326 16.8522 18.0193 16.596 18.0193H7.40775C7.14742 18.0193 6.93108 17.9326 6.75875 17.7593C6.58625 17.5861 6.5 17.3714 6.5 17.1152ZM20.096 18.0193C19.84 18.0193 19.6254 17.9326 19.4523 17.7593C19.2789 17.5861 19.1923 17.3714 19.1923 17.1152V16.6057C19.1923 16.3506 19.1705 16.1032 19.127 15.8635C19.0833 15.6237 19.016 15.3897 18.925 15.1615C18.8712 15.0243 18.8787 14.8925 18.9475 14.766C19.0165 14.6395 19.1276 14.5688 19.2808 14.5538C19.6679 14.5204 20.0285 14.5105 20.3625 14.524C20.6965 14.5375 21.0705 14.6077 21.4845 14.7345C22.1063 14.9115 22.5977 15.1804 22.9585 15.5413C23.3195 15.9023 23.5 16.3218 23.5 16.8V17.1538C23.5 17.3989 23.4171 17.6045 23.2512 17.7705C23.0852 17.9363 22.8797 18.0193 22.6345 18.0193H20.096ZM11.9988 14.9808C10.9598 14.9808 10.0669 15.1186 9.32025 15.3943C8.57342 15.6699 8.159 16.0097 8.077 16.4135V16.5193H15.9385V16.4135C15.8462 16.0097 15.4307 15.6699 14.6923 15.3943C13.9539 15.1186 13.0561 14.9808 11.9988 14.9808ZM4.25975 13.548C3.78908 13.548 3.38617 13.3804 3.051 13.0452C2.71567 12.7101 2.548 12.3072 2.548 11.8365C2.548 11.3597 2.71567 10.9568 3.051 10.628C3.38617 10.2992 3.78908 10.1348 4.25975 10.1348C4.73658 10.1348 5.141 10.2992 5.473 10.628C5.80517 10.9568 5.97125 11.3597 5.97125 11.8365C5.97125 12.3072 5.80517 12.7101 5.473 13.0452C5.141 13.3804 4.73658 13.548 4.25975 13.548ZM19.75 13.548C19.2833 13.548 18.8814 13.3804 18.5443 13.0452C18.2071 12.7101 18.0385 12.3072 18.0385 11.8365C18.0385 11.3597 18.2071 10.9568 18.5443 10.628C18.8814 10.2992 19.2839 10.1348 19.7518 10.1348C20.2339 10.1348 20.6394 10.2992 20.9683 10.628C21.2971 10.9568 21.4615 11.3597 21.4615 11.8365C21.4615 12.3072 21.2975 12.7101 20.9695 13.0452C20.6415 13.3804 20.235 13.548 19.75 13.548ZM12.0035 12.7308C11.2832 12.7308 10.6698 12.4783 10.1635 11.9735C9.65717 11.4688 9.404 10.8559 9.404 10.1348C9.404 9.39908 9.65633 8.7825 10.161 8.285C10.6658 7.78733 11.2788 7.5385 12 7.5385C12.7355 7.5385 13.3521 7.787 13.8497 8.284C14.3472 8.78083 14.596 9.39658 14.596 10.1313C14.596 10.8514 14.3476 11.4648 13.8508 11.9713C13.3538 12.4776 12.738 12.7308 12.0035 12.7308ZM12 9.0385C11.6975 9.0385 11.4392 9.14358 11.225 9.35375C11.0108 9.56375 10.9038 9.82408 10.9038 10.1348C10.9038 10.4373 11.0108 10.6956 11.225 10.9098C11.4392 11.1238 11.6991 11.2308 12.0048 11.2308C12.3106 11.2308 12.5689 11.1238 12.7797 10.9098C12.9908 10.6956 13.0962 10.4356 13.0962 10.1298C13.0962 9.82408 12.9912 9.56575 12.781 9.35475C12.5708 9.14392 12.3105 9.0385 12 9.0385Z" fill="#1C1B1F"/>
</svg>
