<svg width="16" height="18" viewBox="0 0 16 18" fill="none" xmlns="http://www.w3.org/2000/svg">
<path d="M0.5 12.8077V3.5C0.5 2.732 0.708333 2.11758 1.125 1.65675C1.54167 1.19592 2.09775 0.844 2.79325 0.600999C3.48875 0.357999 4.28842 0.197083 5.19225 0.11825C6.09608 0.0394162 7.032 0 8 0C9.03583 0 10.0092 0.0394162 10.9202 0.11825C11.8311 0.197083 12.6266 0.357999 13.3068 0.600999C13.9869 0.844 14.5225 1.19592 14.9135 1.65675C15.3045 2.11758 15.5 2.732 15.5 3.5V12.8077C15.5 13.7013 15.1913 14.4567 14.574 15.074C13.9567 15.6913 13.2013 16 12.3077 16L13.1538 16.8463C13.3731 17.0654 13.4253 17.3125 13.3105 17.5875C13.1958 17.8625 12.9833 18 12.673 18C12.582 18 12.4952 17.984 12.4125 17.952C12.3298 17.9198 12.2564 17.8717 12.1923 17.8078L10.3848 16H5.61525L3.80775 17.8078C3.74358 17.8717 3.67017 17.9198 3.5875 17.952C3.50483 17.984 3.418 18 3.327 18C3.027 18 2.817 17.8625 2.697 17.5875C2.57717 17.3125 2.62692 17.0654 2.84625 16.8463L3.69225 16C2.79875 16 2.04333 15.6913 1.426 15.074C0.808666 14.4567 0.5 13.7013 0.5 12.8077ZM8 1.5C6.13717 1.5 4.77817 1.617 3.923 1.851C3.06783 2.085 2.51917 2.39108 2.277 2.76925H13.7848C13.5731 2.37058 13.0372 2.05933 12.177 1.8355C11.3167 1.61183 9.92433 1.5 8 1.5ZM2 8H7.25V4.26925H2V8ZM8.75 8H14V4.26925H8.75V8ZM4.5 13.3077C4.87567 13.3077 5.1875 13.1837 5.4355 12.9355C5.68367 12.6875 5.80775 12.3757 5.80775 12C5.80775 11.6243 5.68367 11.3125 5.4355 11.0645C5.1875 10.8163 4.87567 10.6923 4.5 10.6923C4.12433 10.6923 3.8125 10.8163 3.5645 11.0645C3.31633 11.3125 3.19225 11.6243 3.19225 12C3.19225 12.3757 3.31633 12.6875 3.5645 12.9355C3.8125 13.1837 4.12433 13.3077 4.5 13.3077ZM11.5 13.3077C11.8757 13.3077 12.1875 13.1837 12.4355 12.9355C12.6837 12.6875 12.8077 12.3757 12.8077 12C12.8077 11.6243 12.6837 11.3125 12.4355 11.0645C12.1875 10.8163 11.8757 10.6923 11.5 10.6923C11.1243 10.6923 10.8125 10.8163 10.5645 11.0645C10.3163 11.3125 10.1923 11.6243 10.1923 12C10.1923 12.3757 10.3163 12.6875 10.5645 12.9355C10.8125 13.1837 11.1243 13.3077 11.5 13.3077ZM3.69225 14.5H12.3077C12.7859 14.5 13.1875 14.3375 13.5125 14.0125C13.8375 13.6875 14 13.2859 14 12.8077V9.5H2V12.8077C2 13.2859 2.1625 13.6875 2.4875 14.0125C2.8125 14.3375 3.21408 14.5 3.69225 14.5Z" fill="#1C1B1F"/>
</svg>
