<svg width="19" height="19" viewBox="0 0 19 19" fill="none" xmlns="http://www.w3.org/2000/svg">
<path d="M2.0835 18.1666C1.59871 18.1666 1.18578 17.9962 0.844707 17.6553C0.503819 17.3142 0.333374 16.9013 0.333374 16.4165V2.58344C0.333374 2.09865 0.503819 1.68572 0.844707 1.34465C1.18578 1.00376 1.59871 0.833313 2.0835 0.833313H15.9166C16.4014 0.833313 16.8143 1.00376 17.1554 1.34465C17.4963 1.68572 17.6667 2.09865 17.6667 2.58344V5.77088H16.5834V2.58344C16.5834 2.38898 16.5209 2.22919 16.396 2.10406C16.2708 1.97912 16.111 1.91665 15.9166 1.91665H2.0835C1.88904 1.91665 1.72925 1.97912 1.60412 2.10406C1.47918 2.22919 1.41671 2.38898 1.41671 2.58344V16.4165C1.41671 16.611 1.47918 16.7708 1.60412 16.8959C1.72925 17.0208 1.88904 17.0833 2.0835 17.0833H15.9166C16.111 17.0833 16.2708 17.0208 16.396 16.8959C16.5209 16.7708 16.5834 16.611 16.5834 16.4165V13.2291H17.6667V16.4165C17.6667 16.9013 17.4963 17.3142 17.1554 17.6553C16.8143 17.9962 16.4014 18.1666 15.9166 18.1666H2.0835ZM10.7502 13.8333C10.2654 13.8333 9.85244 13.6629 9.51137 13.322C9.17049 12.9809 9.00004 12.568 9.00004 12.0832V6.91677C9.00004 6.43198 9.17049 6.01905 9.51137 5.67798C9.85244 5.33709 10.2654 5.16665 10.7502 5.16665H16.9999C17.4847 5.16665 17.8976 5.33709 18.2387 5.67798C18.5796 6.01905 18.75 6.43198 18.75 6.91677V12.0832C18.75 12.568 18.5796 12.9809 18.2387 13.322C17.8976 13.6629 17.4847 13.8333 16.9999 13.8333H10.7502ZM16.9999 12.75C17.1944 12.75 17.3542 12.6875 17.4793 12.5626C17.6042 12.4374 17.6667 12.2776 17.6667 12.0832V6.91677C17.6667 6.72231 17.6042 6.56252 17.4793 6.4374C17.3542 6.31245 17.1944 6.24998 16.9999 6.24998H10.7502C10.5557 6.24998 10.3959 6.31245 10.2708 6.4374C10.1458 6.56252 10.0834 6.72231 10.0834 6.91677V12.0832C10.0834 12.2776 10.1458 12.4374 10.2708 12.5626C10.3959 12.6875 10.5557 12.75 10.7502 12.75H16.9999ZM13.3334 11.125C13.7848 11.125 14.1684 10.967 14.4844 10.651C14.8004 10.335 14.9584 9.95137 14.9584 9.49998C14.9584 9.04859 14.8004 8.66491 14.4844 8.34894C14.1684 8.03297 13.7848 7.87498 13.3334 7.87498C12.882 7.87498 12.4983 8.03297 12.1823 8.34894C11.8664 8.66491 11.7084 9.04859 11.7084 9.49998C11.7084 9.95137 11.8664 10.335 12.1823 10.651C12.4983 10.967 12.882 11.125 13.3334 11.125Z" fill="#8A8A8A"/>
</svg>
